<svg width="28" height="28" viewBox="0 0 28 28" fill="none" xmlns="http://www.w3.org/2000/svg">
    <circle cx="14" cy="14" r="14" fill="#FC6C8D"/>
    <path d="M17.5458 7.00027C17.3673 7.00506 17.1978 7.07226 17.0734 7.18763L10.2012 13.3766C10.0724 13.4926 10 13.65 10 13.8141C10 13.9782 10.0724 14.1356 10.2012 14.2517L17.0734 20.4406C17.1367 20.5 17.2125 20.5474 17.2965 20.5801C17.3804 20.6128 17.4707 20.63 17.5621 20.6309C17.6536 20.6317 17.7443 20.6161 17.8289 20.585C17.9136 20.5539 17.9905 20.5078 18.0551 20.4496C18.1198 20.3914 18.1709 20.3221 18.2054 20.2459C18.24 20.1697 18.2573 20.088 18.2564 20.0057C18.2554 19.9233 18.2363 19.842 18.2 19.7664C18.1637 19.6908 18.1111 19.6225 18.0451 19.5655L11.6588 13.8141L18.0451 8.06278C18.1444 7.97585 18.2122 7.86393 18.2397 7.74169C18.2672 7.61944 18.253 7.49258 18.199 7.37772C18.145 7.26286 18.0538 7.16537 17.9372 7.09802C17.8207 7.03066 17.6842 6.99659 17.5458 7.00027Z"
          fill="white"/>
</svg>
