<svg width="27" height="26" viewBox="0 0 27 26" fill="none" xmlns="http://www.w3.org/2000/svg">
<path d="M17.5627 11.375V6.5C17.5627 5.42256 17.1347 4.38925 16.3728 3.62738C15.6109 2.86551 14.5776 2.4375 13.5002 2.4375C12.4227 2.4375 11.3894 2.86551 10.6275 3.62738C9.86568 4.38925 9.43767 5.42256 9.43767 6.5V11.375M21.74 9.21592L23.1083 22.2159C23.1841 22.9363 22.6208 23.5625 21.896 23.5625H5.10433C4.93339 23.5627 4.76432 23.5269 4.60811 23.4575C4.4519 23.3881 4.31204 23.2866 4.19761 23.1596C4.08318 23.0326 3.99675 22.8829 3.94393 22.7204C3.8911 22.5578 3.87307 22.3859 3.891 22.2159L5.26033 9.21592C5.29192 8.91644 5.43326 8.63926 5.65711 8.43782C5.88095 8.23638 6.17145 8.12495 6.47258 8.125H20.5277C21.1517 8.125 21.675 8.59625 21.74 9.21592ZM9.84392 11.375C9.84392 11.4827 9.80112 11.5861 9.72493 11.6623C9.64874 11.7384 9.54541 11.7813 9.43767 11.7813C9.32992 11.7813 9.22659 11.7384 9.1504 11.6623C9.07422 11.5861 9.03142 11.4827 9.03142 11.375C9.03142 11.2673 9.07422 11.1639 9.1504 11.0877C9.22659 11.0116 9.32992 10.9688 9.43767 10.9688C9.54541 10.9688 9.64874 11.0116 9.72493 11.0877C9.80112 11.1639 9.84392 11.2673 9.84392 11.375ZM17.9689 11.375C17.9689 11.4827 17.9261 11.5861 17.8499 11.6623C17.7737 11.7384 17.6704 11.7813 17.5627 11.7813C17.4549 11.7813 17.3516 11.7384 17.2754 11.6623C17.1992 11.5861 17.1564 11.4827 17.1564 11.375C17.1564 11.2673 17.1992 11.1639 17.2754 11.0877C17.3516 11.0116 17.4549 10.9688 17.5627 10.9688C17.6704 10.9688 17.7737 11.0116 17.8499 11.0877C17.9261 11.1639 17.9689 11.2673 17.9689 11.375Z" stroke="#3C3C43" stroke-width="1.5" stroke-linecap="round" stroke-linejoin="round"/>
</svg>
