<svg width="100" height="100" viewBox="0 0 100 100" fill="none" xmlns="http://www.w3.org/2000/svg">
    <path d="M49.9999 8.33325C27.0249 8.33325 8.33325 27.0249 8.33325 49.9999C8.33325 72.9749 27.0249 91.6666 49.9999 91.6666C72.9749 91.6666 91.6666 72.9749 91.6666 49.9999C91.6666 45.3083 90.8499 40.8091 89.4124 36.5966L82.6659 43.343C83.1034 45.493 83.3332 47.7208 83.3332 49.9999C83.3332 68.3791 68.3791 83.3332 49.9999 83.3332C31.6208 83.3332 16.6666 68.3791 16.6666 49.9999C16.6666 31.6208 31.6208 16.6666 49.9999 16.6666C56.8041 16.6666 63.1329 18.7245 68.4163 22.2411L74.3814 16.276C67.5148 11.301 59.1041 8.33325 49.9999 8.33325ZM88.7206 13.7206L45.8333 56.608L32.1125 42.8873L26.2206 48.7792L45.8333 68.3918L94.6125 19.6125L88.7206 13.7206Z"
          fill="#FC6C8D"/>
</svg>
