<svg width="24" height="24" viewBox="0 0 24 24" fill="none" xmlns="http://www.w3.org/2000/svg">
<path d="M21.0937 7.45331C21.0938 7.54567 21.0756 7.63712 21.0403 7.72246C21.005 7.80779 20.9532 7.88533 20.8879 7.95066L12.2208 16.6174C12.0889 16.7492 11.9101 16.8232 11.7236 16.8232C11.5372 16.8232 11.3584 16.7492 11.2265 16.6174L2.55935 7.95066C2.49403 7.88538 2.44222 7.80787 2.40686 7.72256C2.3715 7.63726 2.35329 7.54582 2.35327 7.45348C2.35325 7.36114 2.37142 7.26969 2.40673 7.18437C2.44205 7.09905 2.49383 7.02152 2.55911 6.9562C2.62439 6.89089 2.7019 6.83908 2.78721 6.80372C2.87251 6.76836 2.96395 6.75015 3.05629 6.75013C3.14863 6.75011 3.24008 6.76827 3.3254 6.80359C3.41072 6.83891 3.48825 6.89069 3.55357 6.95597L11.7234 15.1258L19.8933 6.95597C19.9916 6.85757 20.1169 6.79056 20.2533 6.7634C20.3898 6.73624 20.5312 6.75017 20.6597 6.80341C20.7882 6.85665 20.8981 6.94683 20.9753 7.06251C21.0526 7.1782 21.0938 7.3142 21.0937 7.45331Z" fill="black"/>
</svg>
