<svg width="204" height="37" viewBox="0 0 204 37" fill="none" xmlns="http://www.w3.org/2000/svg">
    <g clip-path="url(#clip0_212_591)">
        <path d="M18.5457 37C28.7883 37 37.0911 28.7175 37.0911 18.5V5.55C37.0911 4.07805 36.505 2.66638 35.4616 1.62556C34.4182 0.58473 33.003 0 31.5275 0L19.4729 0V8.11595C19.4729 9.9678 19.5861 11.8863 20.5597 13.4625C21.2567 14.5921 22.1892 15.5589 23.2937 16.2974C24.3983 17.0359 25.6492 17.5287 26.9616 17.7424L27.3167 17.7998C27.4631 17.8497 27.5902 17.944 27.6802 18.0696C27.7702 18.1952 27.8186 18.3456 27.8186 18.5C27.8186 18.6544 27.7702 18.8048 27.6802 18.9304C27.5902 19.056 27.4631 19.1503 27.3167 19.2002L26.9616 19.2576C25.0441 19.57 23.2735 20.4754 21.8997 21.8458C20.5259 23.2163 19.6183 24.9826 19.3051 26.8953L19.2476 27.2496C19.1976 27.3956 19.103 27.5224 18.9771 27.6122C18.8512 27.702 18.7004 27.7502 18.5457 27.7502C18.3909 27.7502 18.2401 27.702 18.1142 27.6122C17.9883 27.5224 17.8938 27.3956 17.8437 27.2496L17.7862 26.8953C17.5719 25.5862 17.0778 24.3384 16.3376 23.2365C15.5973 22.1346 14.6281 21.2045 13.4957 20.5091C11.9157 19.5379 9.9925 19.425 8.1361 19.425H0.0224609C0.507425 29.2124 8.61457 37 18.5457 37Z"
              fill="#0E9EFF"/>
        <path d="M0 17.575H8.13589C9.99229 17.575 11.9155 17.4622 13.4955 16.4909C14.7307 15.7317 15.7704 14.6946 16.5314 13.4625C17.5051 11.8863 17.6182 9.9678 17.6182 8.11595V0H5.56364C4.08807 0 2.67294 0.58473 1.62955 1.62556C0.586167 2.66638 0 4.07805 0 5.55L0 17.575ZM43.0765 1.85C43.0765 2.34065 42.8811 2.81121 42.5333 3.15815C42.1855 3.50509 41.7138 3.7 41.2219 3.7C40.7301 3.7 40.2583 3.50509 39.9105 3.15815C39.5628 2.81121 39.3674 2.34065 39.3674 1.85C39.3674 1.35935 39.5628 0.888795 39.9105 0.541853C40.2583 0.19491 40.7301 0 41.2219 0C41.7138 0 42.1855 0.19491 42.5333 0.541853C42.8811 0.888795 43.0765 1.35935 43.0765 1.85ZM196.314 11.1962C201.498 11.1962 204 14.8083 204 18.9921V26.85H198.575V19.9245C198.575 18.0283 197.881 16.4632 195.892 16.4632C193.903 16.4632 193.24 18.0283 193.24 19.9245V26.8491H187.814V19.9245C187.814 18.0283 187.151 16.4632 185.162 16.4632C183.173 16.4632 182.479 18.0283 182.479 19.9245V26.8491H177.054V18.9912C177.054 14.8074 179.555 11.1953 184.74 11.1953C187.573 11.1953 189.623 12.309 190.557 14.1451C191.551 12.309 193.722 11.1944 196.314 11.1944V11.1962ZM167.305 22.0335C169.053 22.0335 169.807 20.4379 169.807 18.5407V11.7975H175.231V19.203C175.231 23.6282 172.64 27.3014 167.305 27.3014C161.97 27.3014 159.378 23.6291 159.378 19.203V11.7975H164.803V18.5407C164.803 20.437 165.556 22.0335 167.305 22.0335ZM151.4 27.331C147.995 27.331 145.794 26.1572 144.498 23.8696L148.417 21.6718C148.959 22.6348 149.772 23.1167 151.129 23.1167C152.244 23.1167 152.756 22.7254 152.756 22.2435C152.756 20.4074 144.799 22.274 144.799 16.4345C144.799 13.604 147.21 11.3165 151.31 11.3165C154.896 11.3165 156.856 13.0619 157.73 14.7482L153.811 16.9756C153.48 16.0728 152.455 15.5308 151.43 15.5308C150.647 15.5308 150.225 15.8619 150.225 16.3133C150.225 18.18 158.182 16.4641 158.182 22.1232C158.182 25.284 155.077 27.331 151.4 27.331ZM132.445 33.7736H127.02V19.2937C127.02 14.6872 130.486 11.3461 135.309 11.3461C140.011 11.3461 143.597 14.9286 143.597 19.2937C143.597 24.1101 140.402 27.3014 135.61 27.3014C134.494 27.3014 133.38 26.9702 132.445 26.4578V33.7736ZM135.309 22.2139C137.027 22.2139 138.172 20.8893 138.172 19.3233C138.172 17.7286 137.027 16.4336 135.309 16.4336C133.59 16.4336 132.445 17.7286 132.445 19.3242C132.445 20.8893 133.59 22.2139 135.309 22.2139ZM121.585 10.2028C119.806 10.2028 118.33 8.72738 118.33 6.95138C118.33 5.17538 119.806 3.7 121.585 3.7C123.363 3.7 124.841 5.17538 124.841 6.95138C124.841 8.72738 123.363 10.2028 121.585 10.2028ZM118.873 11.7975H124.298V26.85H118.873V11.7975ZM108.463 27.3014C103.761 27.3014 100.174 23.6893 100.174 19.2937C100.174 14.9286 103.761 11.3165 108.463 11.3165C113.165 11.3165 116.752 14.9286 116.752 19.2937C116.752 23.6893 113.165 27.3014 108.463 27.3014ZM108.463 22.2139C110.181 22.2139 111.327 20.8893 111.327 19.3233C111.327 17.7286 110.181 16.4039 108.463 16.4039C106.745 16.4039 105.6 17.7286 105.6 19.3233C105.6 20.8893 106.745 22.2139 108.463 22.2139ZM89.9297 34.225C86.1928 34.225 83.4796 32.5693 82.0933 29.6185L86.5841 27.2107C87.0663 28.2347 87.9704 29.2883 89.8388 29.2883C91.7991 29.2883 93.0945 28.0534 93.2456 25.8861C92.5223 26.5188 91.3762 26.9998 89.6589 26.9998C85.4686 26.9998 82.0924 23.779 82.0924 19.2631C82.0924 14.899 85.68 11.3461 90.3822 11.3461C95.2049 11.3461 98.6711 14.6881 98.6711 19.2937V25.2544C98.6711 30.673 94.9027 34.225 89.9297 34.225ZM90.2913 21.9133C91.9187 21.9133 93.1547 20.7986 93.1547 19.1429C93.1547 17.5177 91.9196 16.4336 90.2913 16.4336C88.6936 16.4336 87.4279 17.5177 87.4279 19.1438C87.4279 20.7996 88.6936 21.9133 90.2913 21.9133ZM72.8901 27.3014C68.1879 27.3014 64.6003 23.6893 64.6003 19.2937C64.6003 14.9286 68.1879 11.3165 72.8901 11.3165C77.5914 11.3165 81.179 14.9286 81.179 19.2937C81.179 23.6893 77.5923 27.3014 72.8901 27.3014ZM72.8901 22.2139C74.6084 22.2139 75.7535 20.8893 75.7535 19.3233C75.7535 17.7286 74.6084 16.4039 72.8901 16.4039C71.1719 16.4039 70.0267 17.7286 70.0267 19.3233C70.0267 20.8893 71.1719 22.2139 72.8901 22.2139ZM54.7211 6.5305V21.732H63.7036V26.85H53.9673C50.5317 26.85 49.1455 25.0435 49.1455 22.1834V6.5305H54.7211Z"
              fill="#0E9EFF"/>
    </g>
    <defs>
        <clipPath id="clip0_212_591">
            <rect width="204" height="37" fill="white"/>
        </clipPath>
    </defs>
</svg>
