<svg width="98" height="26" viewBox="0 0 98 26" fill="none" xmlns="http://www.w3.org/2000/svg">
<g clip-path="url(#clip0_375_133)">
<path d="M0.65604 24.7118C0.585216 24.6421 0.549805 24.456 0.549805 24.1538C0.549805 23.7585 0.585216 23.5608 0.65604 23.5608C0.868511 23.5608 1.14 23.526 1.47051 23.4562C1.82463 23.3865 2.15514 23.2934 2.46204 23.1772C2.79256 23.0609 2.98142 22.9331 3.02863 22.7936C3.19388 22.3285 3.27651 21.2706 3.27651 19.6198V6.43613C3.27651 5.06429 3.18208 4.07611 2.99322 3.47156C2.94601 3.33206 2.76894 3.20418 2.46204 3.08792C2.17875 2.97166 1.86004 2.87865 1.50593 2.8089C1.17541 2.71589 0.915726 2.66939 0.726864 2.66939C0.632432 2.66939 0.585216 2.49501 0.585216 2.14623C0.585216 1.77421 0.608825 1.56495 0.65604 1.51844L2.63911 1.62307C3.2293 1.64632 3.74867 1.68121 4.19722 1.72771C4.66938 1.75096 5.05891 1.75096 5.36581 1.72771L9.89853 1.51844C9.96933 1.72771 10.0048 1.91371 10.0048 2.07647C10.0048 2.47175 9.95755 2.66939 9.86308 2.66939C9.72148 2.66939 9.47358 2.71589 9.11946 2.8089C8.76534 2.9019 8.42302 3.00654 8.09252 3.12279C7.78562 3.23905 7.60856 3.35531 7.56134 3.47156C7.46691 3.84359 7.39608 4.28537 7.34887 4.7969C7.30165 5.28519 7.27804 5.86647 7.27804 6.54076V19.6546C7.27804 20.7707 7.38428 21.7007 7.59675 22.4448C7.69118 22.7471 8.49385 22.8981 10.0048 22.8981H11.315C13.18 22.8981 14.5847 22.654 15.529 22.1657C15.9067 21.9798 16.3316 21.5729 16.8038 20.945C17.276 20.3173 17.6419 19.6081 17.9016 18.8175C17.9488 18.6781 18.1141 18.6082 18.3974 18.6082C18.9167 18.6082 19.2472 18.6781 19.3888 18.8175L18.2557 21.9216C18.1141 22.2937 17.9606 22.7703 17.7953 23.3516C17.6301 23.9097 17.5238 24.3631 17.4767 24.7118C16.5323 24.7118 14.5847 24.6769 11.6337 24.6072C10.1464 24.5607 8.88338 24.5374 7.84463 24.5374C6.80589 24.5374 5.97961 24.549 5.36581 24.5723L0.65604 24.7118ZM35.8526 24.6769C33.0196 24.6769 30.7886 23.8398 29.1597 22.1657C27.5308 20.4684 26.7163 17.748 26.7163 14.0045V6.40126C26.7163 4.93641 26.6219 3.95985 26.433 3.47156C26.3858 3.33206 26.2088 3.20418 25.9018 3.08792C25.6185 2.97166 25.2999 2.87865 24.9457 2.8089C24.6152 2.71589 24.3555 2.66939 24.1667 2.66939C24.0722 2.66939 24.025 2.49501 24.025 2.14623C24.025 1.79746 24.0604 1.5882 24.1312 1.51844L28.841 1.72771C29.2896 1.72771 30.8005 1.65796 33.3737 1.51844C33.3973 1.61145 33.4092 1.70446 33.4092 1.79746C33.4327 1.89046 33.4445 1.98347 33.4445 2.07647C33.4445 2.47175 33.3973 2.66939 33.3029 2.66939C33.1612 2.66939 32.9016 2.71589 32.5238 2.8089C32.1697 2.87865 31.8392 2.97166 31.5323 3.08792C31.2254 3.20418 31.0601 3.33206 31.0366 3.47156C30.9421 3.82034 30.8713 4.25049 30.8241 4.76203C30.7768 5.27355 30.7533 5.86647 30.7533 6.54076V14.5625C30.7533 16.9574 31.2726 18.8757 32.3113 20.3173C33.3737 21.7357 34.8374 22.4448 36.7024 22.4448C38.5202 22.4448 39.9721 21.8635 41.0581 20.7009C42.1676 19.5151 42.7224 17.562 42.7224 14.8415V6.3315C42.7224 4.91316 42.6044 3.9831 42.3683 3.54132C42.2739 3.40181 42.0378 3.2623 41.66 3.12279C41.306 2.98329 40.9282 2.86703 40.5269 2.77403C40.1255 2.68102 39.8187 2.63451 39.6062 2.63451C39.5117 2.63451 39.4527 2.47175 39.4291 2.14623C39.4291 1.82071 39.4646 1.61145 39.5354 1.51844C40.8102 1.61145 41.8135 1.68121 42.5454 1.72771C43.3008 1.75096 43.7848 1.76258 43.9973 1.76258C44.3042 1.76258 44.6465 1.75096 45.0242 1.72771C45.4255 1.70446 45.8741 1.66958 46.3698 1.62307C47.3377 1.55332 47.9398 1.51844 48.1758 1.51844C48.1995 1.61145 48.2113 1.70446 48.2113 1.79746C48.2348 1.86721 48.2467 1.96022 48.2467 2.07647C48.2467 2.4485 48.1995 2.63451 48.105 2.63451C47.8925 2.63451 47.5857 2.68102 47.1843 2.77403C46.783 2.84378 46.3935 2.94841 46.0157 3.08792C45.638 3.22743 45.3783 3.40181 45.2366 3.61108C44.977 4.23887 44.8472 5.2038 44.8472 6.50588V14.702C44.8472 18.3293 43.9854 20.9218 42.2621 22.4797C41.4358 23.247 40.4915 23.805 39.4291 24.1538C38.3904 24.5025 37.1982 24.6769 35.8526 24.6769ZM64.1792 24.8165C62.621 24.8165 61.1573 24.5141 59.7881 23.9097C58.4424 23.3051 57.2502 22.4797 56.2115 21.4333C55.1728 20.387 54.3582 19.178 53.7681 17.8061C53.2015 16.411 52.9182 14.9346 52.9182 13.3767C52.9182 11.7258 53.2133 10.1796 53.8034 8.73803C54.3937 7.27319 55.2199 5.99436 56.2823 4.90154C57.3447 3.78546 58.5841 2.91353 60.0006 2.28574C61.417 1.65796 62.9398 1.34406 64.5686 1.34406C67.2363 1.34406 70.0221 1.65796 72.9259 2.28574C72.9731 2.28574 73.0084 2.51826 73.0321 2.98329C73.0793 3.42506 73.1147 3.95985 73.1384 4.58763C73.1619 5.19218 73.1855 5.76184 73.2092 6.29662C73.2327 6.83141 73.2446 7.1918 73.2446 7.37781C73.2446 7.72659 72.9613 7.90097 72.3947 7.90097C72.2295 7.90097 72.0642 7.85447 71.8989 7.76146C71.8045 7.34294 71.6274 6.91279 71.3677 6.47101C71.1316 6.02923 70.7658 5.52932 70.27 4.97129C69.7742 4.41325 69.0423 3.95985 68.0744 3.61108C67.1065 3.23905 65.9851 3.05304 64.7103 3.05304C63.1758 3.05304 61.8537 3.49482 60.7442 4.37837C59.6583 5.23868 58.8202 6.38963 58.23 7.83122C57.6634 9.27281 57.3801 10.8772 57.3801 12.6443C57.3801 14.5974 57.6988 16.3645 58.3362 17.9457C58.9972 19.5267 59.9533 20.794 61.2045 21.7473C62.4558 22.6773 63.9549 23.1423 65.7018 23.1423C67.7793 23.1423 69.4436 22.4913 70.695 21.1892C71.0726 20.794 71.3559 20.3522 71.5448 19.8639C71.7572 19.3523 71.9225 18.9106 72.0405 18.5385C72.1586 18.1432 72.2648 17.9457 72.3593 17.9457C73.1855 17.9457 73.6459 18.0502 73.7403 18.2595C73.7403 18.399 73.6813 18.7362 73.5633 19.2709C73.4688 19.7825 73.3508 20.3522 73.2092 20.9799C73.0675 21.5845 72.9141 22.1192 72.7488 22.5843C72.6071 23.0493 72.4891 23.3051 72.3947 23.3516C70.3408 24.3281 67.6023 24.8165 64.1792 24.8165ZM78.6243 24.7118C78.5535 24.6421 78.518 24.456 78.518 24.1538C78.518 23.7585 78.5535 23.5608 78.6243 23.5608C78.8368 23.5608 79.1083 23.526 79.4388 23.4562C79.7929 23.3865 80.1234 23.2934 80.4303 23.1772C80.7608 23.0609 80.9497 22.9331 80.9969 22.7936C81.1622 22.3285 81.2448 21.2706 81.2448 19.6198V6.43613C81.2448 5.01779 81.1622 4.06448 80.9969 3.5762C80.9497 3.39019 80.7726 3.23905 80.4658 3.12279C80.1825 2.98329 79.8519 2.87865 79.4742 2.8089C79.1201 2.73914 78.825 2.70427 78.5889 2.70427C78.4945 2.70427 78.4473 2.52988 78.4473 2.18111C78.4473 1.85559 78.4945 1.64632 78.5889 1.55332C79.3679 1.59982 80.147 1.64632 80.9261 1.69283C81.7052 1.71608 82.496 1.72771 83.2987 1.72771C83.8181 1.72771 84.5381 1.71608 85.4588 1.69283C86.3795 1.64632 87.4891 1.59982 88.7875 1.55332C91.4083 1.48356 93.3909 1.44869 94.7371 1.44869C94.7842 1.79746 94.8549 2.21599 94.9492 2.70427C95.0435 3.19254 95.1613 3.73896 95.3037 4.3435L95.7633 6.40126C95.6454 6.51751 95.3979 6.57564 95.0199 6.57564C94.7607 6.57564 94.5948 6.49426 94.524 6.3315C93.7453 4.26212 92.2341 3.22743 89.9915 3.22743H88.1501C86.3795 3.22743 85.4824 3.37856 85.4588 3.68083C85.3171 4.33187 85.2463 5.27355 85.2463 6.50588V11.9816C85.2463 12.1211 85.7657 12.1909 86.8045 12.1909H88.7875C90.1331 12.1909 90.9476 12.1327 91.2306 12.0165C91.4908 11.9002 91.6911 11.4933 91.8325 10.7957C91.9041 10.4935 91.9749 10.2029 92.0456 9.92387C92.0691 9.7611 92.2577 9.67967 92.6122 9.67967C92.9421 9.67967 93.167 9.73788 93.2848 9.85413V16.4459C93.1905 16.5389 92.9657 16.5854 92.6122 16.5854C92.3048 16.5854 92.1163 16.4924 92.0456 16.3064C91.9513 15.9808 91.8679 15.7135 91.7972 15.5042C91.7265 15.2717 91.6675 15.074 91.6204 14.9113C91.5025 14.6556 91.4318 14.516 91.4083 14.4928C91.3847 14.4463 91.2659 14.3532 91.0539 14.2138C90.7234 14.0277 89.6374 13.9348 87.796 13.9348C86.0962 13.9348 85.2463 14.0277 85.2463 14.2138V19.6198C85.2463 20.8986 85.3526 21.8402 85.565 22.4448C85.6594 22.7471 86.4622 22.8981 87.973 22.8981H89.2832C91.1483 22.8981 92.5532 22.654 93.4969 22.1657C93.875 21.9798 94.3001 21.5729 94.7724 20.945C95.2438 20.3173 95.6101 19.6081 95.8703 18.8175C95.9174 18.6781 96.0824 18.6082 96.3652 18.6082C96.8847 18.6082 97.2156 18.6781 97.357 18.8175L96.2238 21.9216C96.0824 22.2937 95.9292 22.7703 95.7633 23.3516C95.5983 23.9097 95.4922 24.3631 95.4451 24.7118C94.5005 24.7118 92.5532 24.6769 89.602 24.6072C88.1147 24.5607 86.8516 24.5374 85.8129 24.5374C84.7742 24.5374 83.9479 24.549 83.3341 24.5723L78.6243 24.7118Z" fill="#4A4A4A"/>
</g>
<defs>
<clipPath id="clip0_375_133">
<rect width="97" height="25" fill="white" transform="translate(0.5 0.5)"/>
</clipPath>
</defs>
</svg>
