<svg width="38" height="37" viewBox="0 0 38 37" fill="none" xmlns="http://www.w3.org/2000/svg">
    <g clip-path="url(#clip0_261_588)">
        <path d="M18.5457 37C28.7883 37 37.0911 28.7175 37.0911 18.5V5.55C37.0911 4.07805 36.505 2.66638 35.4616 1.62556C34.4182 0.58473 33.003 0 31.5275 0L19.4729 0V8.11595C19.4729 9.9678 19.5861 11.8863 20.5597 13.4625C21.2567 14.5921 22.1892 15.5589 23.2937 16.2974C24.3983 17.0359 25.6492 17.5287 26.9616 17.7424L27.3167 17.7998C27.4631 17.8497 27.5902 17.944 27.6802 18.0696C27.7702 18.1952 27.8186 18.3456 27.8186 18.5C27.8186 18.6544 27.7702 18.8048 27.6802 18.9304C27.5902 19.056 27.4631 19.1503 27.3167 19.2002L26.9616 19.2576C25.0441 19.57 23.2735 20.4754 21.8997 21.8458C20.5259 23.2163 19.6183 24.9826 19.3051 26.8953L19.2476 27.2496C19.1976 27.3956 19.103 27.5224 18.9771 27.6122C18.8512 27.702 18.7004 27.7502 18.5457 27.7502C18.3909 27.7502 18.2401 27.702 18.1142 27.6122C17.9883 27.5224 17.8938 27.3956 17.8437 27.2496L17.7862 26.8953C17.5719 25.5862 17.0778 24.3384 16.3376 23.2365C15.5973 22.1346 14.6281 21.2045 13.4957 20.5091C11.9157 19.5379 9.9925 19.425 8.1361 19.425H0.0224609C0.507425 29.2124 8.61457 37 18.5457 37Z"
              fill="#0E9EFF"/>
    </g>
    <defs>
        <clipPath id="clip0_261_588">
            <rect width="37.07" height="37" fill="white"/>
        </clipPath>
    </defs>
</svg>
