<svg width="28" height="28" viewBox="0 0 28 28" fill="none" xmlns="http://www.w3.org/2000/svg">
<path d="M12.8333 1.1665V6.99984H9.33325L13.9999 11.6665L18.6666 6.99984H15.1666V1.1665H12.8333ZM5.14966 2.32861L1.17114 2.34912L1.18254 4.68245L3.5979 4.67106L7.44198 13.8927L6.04517 16.1281C5.5785 16.8748 5.55436 17.8179 5.98136 18.5868C6.40836 19.3556 7.21856 19.8332 8.09823 19.8332H22.1666V17.4998H8.09823L8.02303 17.3631L9.39478 15.1665H18.1083C18.9565 15.1665 19.737 14.7076 20.1477 13.9679L24.9465 5.32731L22.9071 4.19482L18.1083 12.8332H9.52694L5.14966 2.32861ZM8.16659 20.9998C7.54775 20.9998 6.95425 21.2457 6.51667 21.6833C6.07908 22.1208 5.83325 22.7143 5.83325 23.3332C5.83325 23.952 6.07908 24.5455 6.51667 24.9831C6.95425 25.4207 7.54775 25.6665 8.16659 25.6665C8.78542 25.6665 9.37892 25.4207 9.8165 24.9831C10.2541 24.5455 10.4999 23.952 10.4999 23.3332C10.4999 22.7143 10.2541 22.1208 9.8165 21.6833C9.37892 21.2457 8.78542 20.9998 8.16659 20.9998ZM19.8333 20.9998C19.2144 20.9998 18.6209 21.2457 18.1833 21.6833C17.7458 22.1208 17.4999 22.7143 17.4999 23.3332C17.4999 23.952 17.7458 24.5455 18.1833 24.9831C18.6209 25.4207 19.2144 25.6665 19.8333 25.6665C20.4521 25.6665 21.0456 25.4207 21.4832 24.9831C21.9208 24.5455 22.1666 23.952 22.1666 23.3332C22.1666 22.7143 21.9208 22.1208 21.4832 21.6833C21.0456 21.2457 20.4521 20.9998 19.8333 20.9998Z" fill="white"/>
</svg>
