<svg width="27" height="25" viewBox="0 0 27 25" fill="none" xmlns="http://www.w3.org/2000/svg">
    <path d="M4.21874 3.64583C4.10694 3.64437 3.99593 3.66349 3.89218 3.7021C3.78842 3.7407 3.69399 3.79801 3.61436 3.8707C3.53474 3.9434 3.47151 4.03002 3.42836 4.12553C3.3852 4.22104 3.36298 4.32354 3.36298 4.42708C3.36298 4.53062 3.3852 4.63312 3.42836 4.72863C3.47151 4.82414 3.53474 4.91076 3.61436 4.98345C3.69399 5.05615 3.78842 5.11346 3.89218 5.15206C3.99593 5.19067 4.10694 5.20979 4.21874 5.20833H14.9062C15.018 5.20979 15.1291 5.19067 15.2328 5.15206C15.3366 5.11346 15.431 5.05615 15.5106 4.98345C15.5902 4.91076 15.6535 4.82414 15.6966 4.72863C15.7398 4.63312 15.762 4.53062 15.762 4.42708C15.762 4.32354 15.7398 4.22104 15.6966 4.12553C15.6535 4.03002 15.5902 3.9434 15.5106 3.8707C15.431 3.79801 15.3366 3.7407 15.2328 3.7021C15.1291 3.66349 15.018 3.64437 14.9062 3.64583H4.21874ZM18.8317 7.03125C18.6121 7.03422 18.4024 7.11633 18.2472 7.26013L14.3097 10.906C14.2287 10.9779 14.1641 11.0642 14.1195 11.1596C14.075 11.255 14.0515 11.3577 14.0503 11.4616C14.0492 11.5656 14.0704 11.6687 14.1129 11.7649C14.1553 11.8611 14.2181 11.9485 14.2974 12.022C14.3768 12.0955 14.4712 12.1536 14.5752 12.1929C14.6791 12.2322 14.7904 12.2519 14.9027 12.2508C15.0149 12.2498 15.1258 12.228 15.2289 12.1868C15.3319 12.1455 15.4251 12.0857 15.5028 12.0107L18 9.69848V21.0937C17.9984 21.1973 18.0191 21.3001 18.0608 21.3961C18.1025 21.4922 18.1643 21.5796 18.2429 21.6534C18.3214 21.7271 18.4149 21.7856 18.5181 21.8256C18.6212 21.8655 18.7319 21.8861 18.8437 21.8861C18.9556 21.8861 19.0663 21.8655 19.1694 21.8256C19.2726 21.7856 19.3661 21.7271 19.4446 21.6534C19.5231 21.5796 19.585 21.4922 19.6267 21.3961C19.6684 21.3001 19.6891 21.1973 19.6875 21.0937V9.69848L22.1847 12.0107C22.2624 12.0857 22.3556 12.1455 22.4586 12.1868C22.5616 12.228 22.6725 12.2498 22.7848 12.2508C22.897 12.2519 23.0084 12.2322 23.1123 12.1929C23.2163 12.1536 23.3107 12.0955 23.3901 12.022C23.4694 11.9485 23.5322 11.8611 23.5746 11.7649C23.617 11.6687 23.6383 11.5656 23.6372 11.4616C23.636 11.3577 23.6125 11.255 23.568 11.1596C23.5234 11.0642 23.4588 10.9779 23.3778 10.906L19.4403 7.26013C19.3605 7.18624 19.2656 7.12791 19.161 7.08859C19.0565 7.04928 18.9445 7.02978 18.8317 7.03125ZM4.21874 7.8125C4.10694 7.81103 3.99593 7.83016 3.89218 7.86876C3.78842 7.90737 3.69399 7.96468 3.61436 8.03737C3.53474 8.11006 3.47151 8.19668 3.42836 8.29219C3.3852 8.38771 3.36298 8.49021 3.36298 8.59375C3.36298 8.69728 3.3852 8.79978 3.42836 8.8953C3.47151 8.99081 3.53474 9.07743 3.61436 9.15012C3.69399 9.22281 3.78842 9.28012 3.89218 9.31873C3.99593 9.35733 4.10694 9.37646 4.21874 9.375H12.6562C12.768 9.37646 12.8791 9.35733 12.9828 9.31873C13.0866 9.28012 13.181 9.22281 13.2606 9.15012C13.3402 9.07743 13.4035 8.99081 13.4466 8.8953C13.4898 8.79978 13.512 8.69728 13.512 8.59375C13.512 8.49021 13.4898 8.38771 13.4466 8.29219C13.4035 8.19668 13.3402 8.11006 13.2606 8.03737C13.181 7.96468 13.0866 7.90737 12.9828 7.86876C12.8791 7.83016 12.768 7.81103 12.6562 7.8125H4.21874ZM4.21874 11.9792C4.10694 11.9777 3.99593 11.9968 3.89218 12.0354C3.78842 12.074 3.69399 12.1313 3.61436 12.204C3.53474 12.2767 3.47151 12.3633 3.42836 12.4589C3.3852 12.5544 3.36298 12.6569 3.36298 12.7604C3.36298 12.8639 3.3852 12.9665 3.42836 13.062C3.47151 13.1575 3.53474 13.2441 3.61436 13.3168C3.69399 13.3895 3.78842 13.4468 3.89218 13.4854C3.99593 13.524 4.10694 13.5431 4.21874 13.5417H10.4062C10.518 13.5431 10.6291 13.524 10.7328 13.4854C10.8366 13.4468 10.931 13.3895 11.0106 13.3168C11.0902 13.2441 11.1535 13.1575 11.1966 13.062C11.2398 12.9665 11.262 12.8639 11.262 12.7604C11.262 12.6569 11.2398 12.5544 11.1966 12.4589C11.1535 12.3633 11.0902 12.2767 11.0106 12.204C10.931 12.1313 10.8366 12.074 10.7328 12.0354C10.6291 11.9968 10.518 11.9777 10.4062 11.9792H4.21874ZM4.21874 16.1458C4.10694 16.1444 3.99593 16.1635 3.89218 16.2021C3.78842 16.2407 3.69399 16.298 3.61436 16.3707C3.53474 16.4434 3.47151 16.53 3.42836 16.6255C3.3852 16.721 3.36298 16.8235 3.36298 16.9271C3.36298 17.0306 3.3852 17.1331 3.42836 17.2286C3.47151 17.3241 3.53474 17.4108 3.61436 17.4835C3.69399 17.5561 3.78842 17.6135 3.89218 17.6521C3.99593 17.6907 4.10694 17.7098 4.21874 17.7083H8.15624C8.26805 17.7098 8.37906 17.6907 8.48281 17.6521C8.58657 17.6135 8.681 17.5561 8.76062 17.4835C8.84025 17.4108 8.90347 17.3241 8.94663 17.2286C8.98979 17.1331 9.01201 17.0306 9.01201 16.9271C9.01201 16.8235 8.98979 16.721 8.94663 16.6255C8.90347 16.53 8.84025 16.4434 8.76062 16.3707C8.681 16.298 8.58657 16.2407 8.48281 16.2021C8.37906 16.1635 8.26805 16.1444 8.15624 16.1458H4.21874ZM4.21874 20.3125C4.10694 20.311 3.99593 20.3302 3.89218 20.3688C3.78842 20.4074 3.69399 20.4647 3.61436 20.5374C3.53474 20.6101 3.47151 20.6967 3.42836 20.7922C3.3852 20.8877 3.36298 20.9902 3.36298 21.0937C3.36298 21.1973 3.3852 21.2998 3.42836 21.3953C3.47151 21.4908 3.53474 21.5774 3.61436 21.6501C3.69399 21.7228 3.78842 21.7801 3.89218 21.8187C3.99593 21.8573 4.10694 21.8765 4.21874 21.875H5.90624C6.01805 21.8765 6.12906 21.8573 6.23281 21.8187C6.33656 21.7801 6.431 21.7228 6.51062 21.6501C6.59025 21.5774 6.65347 21.4908 6.69663 21.3953C6.73979 21.2998 6.76201 21.1973 6.76201 21.0937C6.76201 20.9902 6.73979 20.8877 6.69663 20.7922C6.65347 20.6967 6.59025 20.6101 6.51062 20.5374C6.431 20.4647 6.33656 20.4074 6.23281 20.3688C6.12906 20.3302 6.01805 20.311 5.90624 20.3125H4.21874Z"
          fill="white"/>
</svg>
