<svg width="24" height="24" viewBox="0 0 24 24" fill="none" xmlns="http://www.w3.org/2000/svg">
<path d="M2.90628 16.5467C2.90624 16.4543 2.92439 16.3629 2.9597 16.2775C2.99501 16.1922 3.04678 16.1147 3.11206 16.0493L11.7792 7.38262C11.9111 7.25081 12.0899 7.17676 12.2764 7.17676C12.4628 7.17676 12.6416 7.25081 12.7735 7.38262L21.4407 16.0493C21.506 16.1146 21.5578 16.1921 21.5931 16.2774C21.6285 16.3627 21.6467 16.4542 21.6467 16.5465C21.6468 16.6389 21.6286 16.7303 21.5933 16.8156C21.5579 16.901 21.5062 16.9785 21.4409 17.0438C21.3756 17.1091 21.2981 17.1609 21.2128 17.1963C21.1275 17.2316 21.0361 17.2498 20.9437 17.2499C20.8514 17.2499 20.7599 17.2317 20.6746 17.1964C20.5893 17.1611 20.5117 17.1093 20.4464 17.044L12.2766 8.87419L4.10675 17.044C4.00841 17.1424 3.8831 17.2094 3.74666 17.2366C3.61023 17.2638 3.4688 17.2498 3.34029 17.1966C3.21177 17.1433 3.10193 17.0532 3.02467 16.9375C2.94742 16.8218 2.90622 16.6858 2.90628 16.5467Z" fill="black"/>
</svg>
